<svg xmlns="http://www.w3.org/2000/svg" width="25" height="118" viewBox="0 0 25 118">
  <metadata><?xpacket begin="﻿" id="W5M0MpCehiHzreSzNTczkc9d"?>
<x:xmpmeta xmlns:x="adobe:ns:meta/" x:xmptk="Adobe XMP Core 5.6-c142 79.160924, 2017/07/13-01:06:39        ">
   <rdf:RDF xmlns:rdf="http://www.w3.org/1999/02/22-rdf-syntax-ns#">
      <rdf:Description rdf:about=""/>
   </rdf:RDF>
</x:xmpmeta>
            
<?xpacket end="w"?></metadata>
<defs>
    <style>
      
      }
    </style>
  </defs>
  <path id="Shape_57_copy" data-name="Shape 57 copy" class="cls-1" d="M202.491,347.5h-7.483c-4.39,0-4.517-4.489-4.517-5v-33c0-.341-0.036-8.382-3.2-12.6a39.854,39.854,0,0,0-6.2-6.4,39.9,39.9,0,0,0,6.2-6.4c3.164-4.218,3.2-12.26,3.2-12.6v-33c0-.512.127-5,4.517-5h7.483a1,1,0,0,0,0-2h-7.483c-4.478,0-6.517,3.628-6.517,7v33c0,0.077-.038,7.717-2.8,11.4a39.2,39.2,0,0,1-6.8,6.8,0.9,0.9,0,0,0-.116.131,0.8,0.8,0,0,0-.083.069c-0.013.016-.014,0.036-0.025,0.052a0.934,0.934,0,0,0-.089.186,1.034,1.034,0,0,0-.06.172,1.008,1.008,0,0,0-.009.19,0.994,0.994,0,0,0,.009.189,0.975,0.975,0,0,0,.06.172,0.909,0.909,0,0,0,.089.186,0.512,0.512,0,0,0,.025.053,0.8,0.8,0,0,0,.083.069,0.892,0.892,0,0,0,.116.13,39.221,39.221,0,0,1,6.8,6.8c2.761,3.683,2.8,11.324,2.8,11.4v33c0,3.371,2.039,7,6.517,7h7.483A1,1,0,0,0,202.491,347.5Z" transform="translate(-178.5 -231.5)"/>
</svg>
